<?xml version="1.0" encoding="UTF-8" standalone="no"?>
<!-- Created with Inkscape (http://www.inkscape.org/) -->

<svg
   width="600"
   height="420"
   viewBox="0 0 158.75 111.125"
   version="1.1"
   id="svg8"
   inkscape:version="1.4 (e7c3feb100, 2024-10-09)"
   sodipodi:docname="train.svg"
   xmlns:inkscape="http://www.inkscape.org/namespaces/inkscape"
   xmlns:sodipodi="http://sodipodi.sourceforge.net/DTD/sodipodi-0.dtd"
   xmlns="http://www.w3.org/2000/svg"
   xmlns:svg="http://www.w3.org/2000/svg"
   xmlns:rdf="http://www.w3.org/1999/02/22-rdf-syntax-ns#"
   xmlns:cc="http://creativecommons.org/ns#"
   xmlns:dc="http://purl.org/dc/elements/1.1/">
  <defs
     id="defs2" />
  <sodipodi:namedview
     id="base"
     pagecolor="#ffffff"
     bordercolor="#666666"
     borderopacity="1.0"
     inkscape:pageopacity="0.0"
     inkscape:pageshadow="2"
     inkscape:zoom="0.7"
     inkscape:cx="350.71429"
     inkscape:cy="302.85714"
     inkscape:document-units="mm"
     inkscape:current-layer="layer1"
     showgrid="false"
     inkscape:window-width="1920"
     inkscape:window-height="1011"
     inkscape:window-x="0"
     inkscape:window-y="32"
     inkscape:window-maximized="1"
     inkscape:showpageshadow="0"
     inkscape:pagecheckerboard="0"
     inkscape:deskcolor="#505050" />
  <metadata
     id="metadata5">
    <rdf:RDF>
      <cc:Work
         rdf:about="">
        <dc:format>image/svg+xml</dc:format>
        <dc:type
           rdf:resource="http://purl.org/dc/dcmitype/StillImage" />
      </cc:Work>
    </rdf:RDF>
  </metadata>
  <g
     inkscape:label="Layer 1"
     inkscape:groupmode="layer"
     id="layer1">
    <rect
       style="fill:#b32424;fill-opacity:1;stroke:none;stroke-width:12.6384;stroke-miterlimit:4;stroke-dasharray:none;stroke-opacity:1;paint-order:stroke fill markers"
       id="rect4917-8"
       width="21.12487"
       height="36.46051"
       x="-90.1772"
       y="27.032127"
       ry="9.854188"
       transform="scale(-1,1)" />
    <rect
       style="fill:#b32424;fill-opacity:1;stroke:none;stroke-width:30.5593;stroke-miterlimit:4;stroke-dasharray:none;stroke-opacity:1;paint-order:stroke fill markers"
       id="rect4915"
       width="106.32797"
       height="29.94507"
       x="-106.77203"
       y="48.488853"
       ry="0"
       transform="scale(-1,1)" />
    <ellipse
       style="fill:#2a4b8d;fill-opacity:1;stroke:#ffcc33;stroke-width:3.32795;stroke-miterlimit:4;stroke-dasharray:none;stroke-opacity:0.941176;paint-order:stroke fill markers"
       id="path4518-3"
       cx="-101.99992"
       cy="70.284798"
       rx="14.206197"
       ry="20.203627"
       transform="scale(-1,1)" />
    <path
       style="fill:#2a4b8d;fill-opacity:1;stroke:#2a4b8d;stroke-width:3.32795;stroke-miterlimit:4;stroke-dasharray:none;stroke-opacity:1;paint-order:stroke fill markers"
       d="m 141.53379,50.081081 a 14.206196,20.203627 0 0 1 14.2062,20.20357 14.206196,20.203627 0 0 1 -14.2062,20.20399 14.206196,20.203627 0 0 1 -1.64869,-0.16188 14.206196,20.203627 0 0 1 -1.70197,0.16188 14.206196,20.203627 0 0 1 -1.6487,-0.16188 14.206196,20.203627 0 0 1 -1.70142,0.16188 14.206196,20.203627 0 0 1 -1.64869,-0.16188 14.206196,20.203627 0 0 1 -1.70198,0.16188 14.206196,20.203627 0 0 1 -1.64869,-0.16188 14.206196,20.203627 0 0 1 -1.70196,0.16188 14.206196,20.203627 0 0 1 -1.64814,-0.16188 14.206196,20.203627 0 0 1 -1.70197,0.16188 14.206196,20.203627 0 0 1 -1.6487,-0.16188 14.206196,20.203627 0 0 1 -1.70197,0.16188 14.206196,20.203627 0 0 1 -1.64869,-0.16188 14.206196,20.203627 0 0 1 -1.70141,0.16188 14.206196,20.203627 0 0 1 -1.6487,-0.16188 14.206196,20.203627 0 0 1 -1.70198,0.16188 14.206196,20.203627 0 0 1 -1.64868,-0.16188 14.206196,20.203627 0 0 1 -1.70198,0.16188 14.206196,20.203627 0 0 1 -1.64869,-0.16188 14.206196,20.203627 0 0 1 -1.70141,0.16188 14.206196,20.203627 0 0 1 -1.64869,-0.16188 14.206196,20.203627 0 0 1 -1.70197,0.16188 14.206196,20.203627 0 0 1 -14.206209,-20.20399 14.206196,20.203627 0 0 1 14.206209,-20.20357 14.206196,20.203627 0 0 1 1.64924,0.16189 14.206196,20.203627 0 0 1 1.70142,-0.16189 14.206196,20.203627 0 0 1 1.64925,0.16189 14.206196,20.203627 0 0 1 1.70085,-0.16189 14.206196,20.203627 0 0 1 1.64927,0.16189 14.206196,20.203627 0 0 1 1.70139,-0.16189 14.206196,20.203627 0 0 1 1.64927,0.16189 14.206196,20.203627 0 0 1 1.70141,-0.16189 14.206196,20.203627 0 0 1 1.64869,0.16189 14.206196,20.203627 0 0 1 1.70141,-0.16189 14.206196,20.203627 0 0 1 1.64926,0.16189 14.206196,20.203627 0 0 1 1.70141,-0.16189 14.206196,20.203627 0 0 1 1.64925,0.16189 14.206196,20.203627 0 0 1 1.70086,-0.16189 14.206196,20.203627 0 0 1 1.64925,0.16189 14.206196,20.203627 0 0 1 1.7014,-0.16189 14.206196,20.203627 0 0 1 1.64927,0.16189 14.206196,20.203627 0 0 1 1.7014,-0.16189 14.206196,20.203627 0 0 1 1.64926,0.16189 14.206196,20.203627 0 0 1 1.70086,-0.16189 14.206196,20.203627 0 0 1 1.64925,0.16189 14.206196,20.203627 0 0 1 1.70141,-0.16189 z"
       id="path4518-3-6"
       inkscape:connector-curvature="0" />
    <ellipse
       style="fill:#2a4b8d;fill-opacity:1;stroke:#ffcc33;stroke-width:2.89261;stroke-miterlimit:4;stroke-dasharray:none;stroke-opacity:0.941176;paint-order:stroke fill markers"
       id="path4518"
       cx="-145.31305"
       cy="69.658333"
       rx="10.618945"
       ry="20.419933"
       transform="scale(-1,1)" />
    <rect
       style="fill:#2a4b8d;fill-opacity:1;stroke:#2a4b8d;stroke-width:0.976539;stroke-miterlimit:4;stroke-dasharray:none;stroke-opacity:1;paint-order:stroke fill markers"
       id="rect4723"
       width="11.106005"
       height="22.976809"
       x="-37.166832"
       y="127.81877"
       transform="matrix(-0.99989181,-0.01470972,0.71094869,0.70324388,0,0)" />
    <rect
       style="fill:#2a4b8d;fill-opacity:1;stroke:#2a4b8d;stroke-width:0.976539;stroke-miterlimit:4;stroke-dasharray:none;stroke-opacity:1;paint-order:stroke fill markers"
       id="rect4723-9"
       width="11.106005"
       height="22.97681"
       x="-23.564362"
       y="127.89896"
       transform="matrix(-0.99989181,-0.01470972,0.71094869,0.70324388,0,0)" />
    <rect
       style="fill:#2a4b8d;fill-opacity:1;stroke:#2a4b8d;stroke-width:0.976539;stroke-miterlimit:4;stroke-dasharray:none;stroke-opacity:1;paint-order:stroke fill markers"
       id="rect4723-9-3"
       width="11.106005"
       height="22.97681"
       x="-50.683273"
       y="127.85962"
       transform="matrix(-0.99989181,-0.01470972,0.71094869,0.70324388,0,0)" />
    <g
       id="g5039"
       transform="matrix(-0.83918083,0,0,0.43888508,230.15332,-1.2700472)">
      <rect
         transform="matrix(0.99988906,-0.01489544,-0.70652197,0.70769111,0,0)"
         y="301.6962"
         x="364.7847"
         height="27.5516"
         width="13.234378"
         id="rect4723-9-9"
         style="fill:#2a4b8d;fill-opacity:1;stroke:#2a4b8d;stroke-width:1.16732;stroke-miterlimit:4;stroke-dasharray:none;stroke-opacity:1;paint-order:stroke fill markers" />
      <rect
         transform="matrix(0.99988906,-0.01489544,-0.70652197,0.70769111,0,0)"
         y="302.27771"
         x="392.4129"
         height="27.5516"
         width="13.234378"
         id="rect4723-9-9-0"
         style="fill:#2a4b8d;fill-opacity:1;stroke:#2a4b8d;stroke-width:1.16732;stroke-miterlimit:4;stroke-dasharray:none;stroke-opacity:1;paint-order:stroke fill markers" />
      <rect
         transform="matrix(0.99988906,-0.01489544,-0.70652197,0.70769111,0,0)"
         y="302.13232"
         x="385.50586"
         height="27.5516"
         width="13.234378"
         id="rect4723-9-9-23"
         style="fill:#2a4b8d;fill-opacity:1;stroke:#2a4b8d;stroke-width:1.16732;stroke-miterlimit:4;stroke-dasharray:none;stroke-opacity:1;paint-order:stroke fill markers" />
      <rect
         transform="matrix(0.99988906,-0.01489544,-0.70652197,0.70769111,0,0)"
         y="301.98694"
         x="378.59882"
         height="27.5516"
         width="13.234378"
         id="rect4723-9-9-7"
         style="fill:#2a4b8d;fill-opacity:1;stroke:#2a4b8d;stroke-width:1.16732;stroke-miterlimit:4;stroke-dasharray:none;stroke-opacity:1;paint-order:stroke fill markers" />
      <rect
         transform="matrix(0.99988906,-0.01489544,-0.70652197,0.70769111,0,0)"
         y="301.84155"
         x="371.69174"
         height="27.5516"
         width="13.234378"
         id="rect4723-9-9-5"
         style="fill:#2a4b8d;fill-opacity:1;stroke:#2a4b8d;stroke-width:1.16732;stroke-miterlimit:4;stroke-dasharray:none;stroke-opacity:1;paint-order:stroke fill markers" />
    </g>
    <rect
       style="fill:#2a4b8d;fill-opacity:1;stroke:none;stroke-width:29.4193;stroke-miterlimit:4;stroke-dasharray:none;stroke-opacity:1;paint-order:stroke fill markers"
       id="rect4913"
       width="114.50572"
       height="12.842616"
       x="-114.50572"
       y="77.995399"
       ry="0"
       transform="scale(-1,1)" />
    <ellipse
       style="fill:#b32424;fill-opacity:1;stroke:#00af89;stroke-width:11.2313;stroke-miterlimit:4;stroke-dasharray:none;stroke-opacity:1;paint-order:stroke fill markers"
       id="path4755"
       cx="-100.93928"
       cy="99.18145"
       rx="6.5783849"
       ry="6.3005018"
       transform="scale(-1,1)" />
    <rect
       style="fill:#2a4b8d;fill-opacity:1;stroke:none;stroke-width:34.6462;stroke-miterlimit:4;stroke-dasharray:none;stroke-opacity:1;paint-order:stroke fill markers"
       id="rect4911"
       width="24.037271"
       height="58.387062"
       x="-133.71588"
       y="-1.4210855e-14"
       ry="9.4642096"
       transform="scale(-1,1)" />
    <rect
       style="fill:#b32424;fill-opacity:1;stroke:none;stroke-width:29.4193;stroke-miterlimit:4;stroke-dasharray:none;stroke-opacity:1;paint-order:stroke fill markers"
       id="rect4917"
       width="63.62838"
       height="65.591324"
       x="-64.072464"
       y="12.842613"
       ry="6.2646904"
       transform="scale(-1,1)" />
    <path
       style="fill:#b32424;fill-opacity:1;stroke:#00af89;stroke-width:19.7115;stroke-miterlimit:4;stroke-dasharray:none;stroke-opacity:1;paint-order:stroke fill markers"
       d="M 55.967034,90.211541 A 11.545415,11.057713 0 0 0 67.512445,101.26926 11.545415,11.057713 0 0 0 79.057858,90.211541 11.545415,11.057713 0 0 0 67.512445,79.153821 11.545415,11.057713 0 0 0 55.967034,90.211541 Z"
       id="path4755-9" />
    <path
       style="fill:#b32424;fill-opacity:1;stroke:#00af89;stroke-width:19.7115;stroke-miterlimit:4;stroke-dasharray:none;stroke-opacity:1;paint-order:stroke fill markers"
       d="M 13.344847,90.211541 A 11.545415,11.057713 0 0 0 24.89027,101.26926 11.545415,11.057713 0 0 0 36.435682,90.211541 11.545415,11.057713 0 0 0 24.89027,79.153821 11.545415,11.057713 0 0 0 13.344847,90.211541 Z"
       id="path4755-9-2" />
    <rect
       style="fill:#2a4b8d;fill-opacity:1;stroke:none;stroke-width:11.4273;stroke-miterlimit:4;stroke-dasharray:none;stroke-opacity:1;paint-order:stroke fill markers"
       id="rect4911-9"
       width="31.649839"
       height="4.823957"
       x="-137.62601"
       y="6.8284454"
       ry="0"
       transform="scale(-1,1)" />
    <ellipse
       style="fill:#2a4b8d;fill-opacity:1;stroke:#ffcc33;stroke-width:2.94193;stroke-miterlimit:4;stroke-dasharray:none;stroke-opacity:0.941176;paint-order:stroke fill markers"
       id="path4518-7"
       cx="-146.03442"
       cy="69.47541"
       rx="2.4810107"
       ry="6.4320316"
       transform="scale(-1,1)" />
    <rect
       style="fill:#fffffe;fill-opacity:1;stroke:none;stroke-width:2.52207;stroke-miterlimit:4;stroke-dasharray:none;stroke-opacity:1;paint-order:stroke fill markers"
       id="rect5012"
       width="19.348614"
       height="30.696985"
       x="-55.254578"
       y="18.888046"
       ry="10.649975"
       transform="scale(-1,1)" />
    <rect
       style="fill:#fffffe;fill-opacity:1;stroke:none;stroke-width:2.52207;stroke-miterlimit:4;stroke-dasharray:none;stroke-opacity:1;paint-order:stroke fill markers"
       id="rect5012-3"
       width="19.348614"
       height="30.696985"
       x="-28.610558"
       y="18.888046"
       ry="10.649975"
       transform="scale(-1,1)" />
    <rect
       style="fill:#ffcc33;fill-opacity:1;stroke:none;stroke-width:2.94193;stroke-miterlimit:4;stroke-dasharray:none;stroke-opacity:0.941176;paint-order:stroke fill markers"
       id="rect5041"
       width="46.626984"
       height="5.9514561"
       x="-76.972961"
       y="86.202095"
       ry="2.975728"
       transform="scale(-1,1)" />
  </g>
</svg>
