<svg
   width="70"
   height="70"
   xmlns="http://www.w3.org/2000/svg">
  <circle
     cy="10"
     cx="10"
     r="30"
     id="circle1" />
  <circle
     cy="10"
     cx="10"
     r="0.5"
     fill="blue"
     id="circle2" />
  <path
     id="circle4-5-2"
     style="fill:#ff00ff;"
     d="m 25.133323,25.744218 c -1.02515,0.433766 -1.948331,1.061348 -2.723607,1.836801 -1.550552,1.550906 -2.509486,3.693294 -2.509325,6.059606 -3.22e-4,4.732623 3.835736,8.569555 8.568359,8.570313 2.366693,1.6e-4 4.513872,-0.954564 6.060296,-2.510016 5.589629,-5.622257 13.514832,-18.282044 13.838142,-26.228266 -7.57e-4,-4.7318607 -3.836499,-8.5676023 -8.56836,-8.5683591 -4.732623,-3.21e-4 -8.569554,3.8357362 -8.570312,8.5683591 -0.603345,6.472247 -3.369706,10.521407 -6.095193,12.271562 z"/>
  <circle
     cy="13.473621"
     cx="39.798222"
     r="7.5"
     fill="#808080"
     id="circle3" />
  <circle
     cy="33.640781"
     cx="28.469257"
     r="7.5"
     fill="#808080"
     id="circle4" />
</svg>
