<svg xmlns="http://www.w3.org/2000/svg"
   width="150"
   height="100"
   viewBox="0 0 39.687499 26.458333">

    <path
       d="M 3.6406047,2.1192505 0.80079703,2.9750974 1.6505452,5.8182495 15.414563,13.229167 1.6505452,20.640601 0.79810426,23.484231 3.6406047,24.338049 19.84375,15.614034 36.046895,24.338049 38.890042,23.484002 38.036955,20.640601 24.272937,13.229167 38.036955,5.8182495 38.891812,2.974085 36.046895,2.1192505 19.84375,10.844299 Z"
       fill="#ff0000" />
    <path
       d="M 3.6042328,3.2931082 2.1805241,3.7221782 2.6065363,5.1475632 17.623762,13.233098 2.5733663,21.42658 2.1460041,22.852204 3.5710628,23.280257 19.844289,14.428726 36.116785,23.280151 37.542167,22.851982 37.114482,21.426473 22.064816,13.233098 37.08319,5.1471317 37.511763,3.7212392 36.085493,3.2926767 19.844289,12.037469 Z"
       fill="#ffffff" />
</svg>