<svg
   xmlns="http://www.w3.org/2000/svg"
   width="150"
   height="125"
   viewBox="0 0 39.687499 33.072914">
   <g transform="translate(0,0.13280658)">
      <path
         id="path1"
         d="M 3.6406047,2.1192505 0.80079703,2.9750974 1.6505452,5.8182495 15.414563,13.229167 1.6505452,20.640601 0.79810426,23.484231 3.6406047,24.338049 19.84375,15.614034 36.046895,24.338049 38.890042,23.484002 38.036955,20.640601 24.272937,13.229167 38.036955,5.8182495 38.891812,2.974085 36.046895,2.1192505 19.84375,10.844299 Z"
         fill="#ff0000" />
      <path
         id="path1-2"
         d="M 3.6042328,3.2931082 2.1805241,3.7221782 2.6065363,5.1475632 17.623762,13.233098 2.5733663,21.42658 2.1460041,22.852204 3.5710628,23.280257 19.844289,14.428726 36.116785,23.280151 37.542167,22.851982 37.114482,21.426473 22.064816,13.233098 37.08319,5.1471317 37.511763,3.7212392 36.085493,3.2926767 19.844289,12.037469 Z"
         fill="#ffffff" />
   </g>
   <g transform="translate(5.041275,-27.026477)">
      <path
         id="path1-7"
         d="m 10.373288,46.738455 -13.7640181,7.411434 -0.8524409,2.84363 2.8425004,0.853818 L 14.802475,49.123322 31.00562,57.847337 33.848767,56.99329 32.99568,54.149889 19.231662,46.738455 14.802475,44.353587 Z"
         fill="#ff0000" />
      <path
         id="path1-2-9"
         d="m 12.582487,46.742386 -15.050396,8.193482 -0.4273622,1.425624 1.4250587,0.428053 16.2732265,-8.851531 16.272496,8.851425 1.425382,-0.428169 -0.427685,-1.425509 -15.049666,-8.193375 -2.220527,-1.195629 z"
         fill="#ffffff" />
   </g>
</svg>
